<?xml version="1.0" standalone="no"?>
<!DOCTYPE svg PUBLIC "-//W3C//DTD SVG 20010904//EN"
 "http://www.w3.org/TR/2001/REC-SVG-20010904/DTD/svg10.dtd">
<svg version="1.0" xmlns="http://www.w3.org/2000/svg"
 width="1280.000000pt" height="720.000000pt" viewBox="0 0 1280.000000 720.000000"
 preserveAspectRatio="xMidYMid meet">

<g transform="translate(0.000000,720.000000) scale(0.100000,-0.100000)"
fill="#000000" stroke="none">
<path d="M6329 5924 c-446 -80 -799 -405 -909 -834 -90 -351 -4 -737 222 -999
137 -157 139 -161 136 -205 -4 -55 -39 -77 -170 -105 -190 -41 -327 -53 -533
-48 -208 6 -315 21 -454 67 -248 81 -392 194 -549 432 -46 71 -95 136 -108
144 -20 14 -26 14 -52 0 -37 -19 -157 -138 -214 -213 -60 -78 -130 -200 -173
-301 -183 -435 -190 -979 -18 -1442 281 -755 964 -1209 2023 -1344 367 -47
904 -45 1270 5 306 41 619 164 855 337 308 225 507 531 586 902 30 140 33 419
6 555 -62 315 -208 595 -423 809 -50 50 -126 116 -169 146 -42 30 -95 71 -116
91 -35 32 -39 42 -39 83 0 49 28 115 80 191 21 30 42 46 89 64 73 29 149 26
251 -9 91 -31 192 -26 242 12 69 53 97 163 62 246 -33 79 -102 126 -205 140
-60 8 -62 9 -37 20 14 6 72 18 127 26 55 8 110 20 123 27 118 61 196 214 162
313 -19 54 -46 80 -106 106 -74 32 -127 28 -274 -20 -165 -54 -251 -58 -337
-16 -92 45 -144 116 -201 275 -57 157 -258 348 -477 450 -210 99 -458 134
-670 95z"/>
</g>
</svg>
